<svg width="712" height="300" viewBox="0 0 712 300" fill="none" xmlns="http://www.w3.org/2000/svg">
<rect x="111" width="601" height="300" fill="url(#paint0_linear_343_4)" fill-opacity="0.9"/>
<path d="M95 265.084L73.156 276.522V276.608H95V295.7H34.112L34.112 267.32C34.112 262.389 35.0007 258.175 36.778 254.678C38.498 251.181 40.8773 248.572 43.916 246.852C46.8973 245.075 50.28 244.186 54.064 244.186C58.1347 244.186 61.7467 245.333 64.9 247.626C68.0533 249.862 70.318 253.101 71.694 257.344L95 244.1V265.084ZM60.428 276.608V269.04C60.428 267.205 60.0267 265.829 59.224 264.912C58.364 263.995 57.0453 263.536 55.268 263.536C53.6627 263.536 52.4013 264.023 51.484 264.998C50.5667 265.915 50.108 267.263 50.108 269.04V276.608H60.428ZM49.334 216.415H56.816L56.816 197.495H71.178V216.415H79.778V194.915H95V235.507H34.112L34.112 194.915H49.334L49.334 216.415ZM85.798 146.096V166.392L95 169.402V189.44L34.112 167.166V145.15L95 122.962V143.086L85.798 146.096ZM71.436 150.74L54.494 156.244L71.436 161.748V150.74ZM64.47 117.764C58.45 117.764 53.0893 116.56 48.388 114.152C43.6867 111.687 40.046 108.189 37.466 103.66C34.8287 99.1306 33.51 93.7986 33.51 87.664C33.51 82.3893 34.5133 77.688 36.52 73.56C38.4693 69.3746 41.25 65.992 44.862 63.412C48.474 60.7746 52.688 59.026 57.504 58.166V78.29C55.4973 79.2073 53.9493 80.526 52.86 82.246C51.7133 83.9086 51.14 85.8293 51.14 88.008C51.14 91.2186 52.344 93.77 54.752 95.662C57.16 97.4966 60.3993 98.414 64.47 98.414C68.5407 98.414 71.78 97.4966 74.188 95.662C76.596 93.77 77.8 91.2186 77.8 88.008C77.8 85.8293 77.2553 83.9086 76.166 82.246C75.0193 80.526 73.4427 79.2073 71.436 78.29V58.166C76.252 59.026 80.466 60.7746 84.078 63.412C87.69 65.992 90.4993 69.3746 92.506 73.56C94.4553 77.688 95.43 82.3893 95.43 87.664C95.43 93.7986 94.14 99.1306 91.56 103.66C88.9227 108.189 85.2533 111.687 80.552 114.152C75.8507 116.56 70.49 117.764 64.47 117.764ZM34.112 0.896023H49.248V17.064H95V36.156H49.248V52.152H34.112L34.112 0.896023Z" fill="#F4F4F4"/>
<defs>
<linearGradient id="paint0_linear_343_4" x1="111" y1="62" x2="736.5" y2="155" gradientUnits="userSpaceOnUse">
<stop stop-color="#00D1FF"/>
<stop offset="0.359375" stop-color="#05B3D9" stop-opacity="0.75"/>
<stop offset="0.588542" stop-color="#0A99B8" stop-opacity="0.56"/>
<stop offset="1" stop-color="#126A7E" stop-opacity="0"/>
</linearGradient>
</defs>
</svg>
